<svg xmlns="http://www.w3.org/2000/svg" width="12.675" height="14.943" viewBox="0 0 12.675 14.943">
  <path id="Path_6" data-name="Path 6" d="M245.88,15.18a.86.86,0,0,0,.46-.67c0-.49,0-1.76,0-1.76a5.88,5.88,0,0,1-.94.07,2,2,0,0,1-2-1.39,2.46,2.46,0,0,0-1-1.19c-.23-.15-.28-.32,0-.37,1.23-.23,1.55,1.39,2.38,1.65a2.26,2.26,0,0,0,1.72-.14,1.8,1.8,0,0,1,.71-1.15c-2.1-.2-3.35-.93-4-2.09L243.07,8l-.16-.37V7.49a6.321,6.321,0,0,1-.29-2,3.46,3.46,0,0,1,1-2.57,3.57,3.57,0,0,1,.16-2.58s.91-.19,2.63,1A9.69,9.69,0,0,1,251,1.25c.72-.47,2-1.14,2.57-.95a3.26,3.26,0,0,1,.19,2.38,4.12,4.12,0,0,1,1.12,3,7.529,7.529,0,0,1-.23,1.85l-.07.26-.1.24v.13c-.63,1.36-1.91,1.87-4,2.08.67.42.86.95.86,2.37v1.94a.9.9,0,0,0,.44.66" transform="translate(-242.208 -0.267)" fill="#fff"/>
</svg>
