<svg xmlns="http://www.w3.org/2000/svg" width="16.84" height="14.94" viewBox="0 0 16.84 14.94">
  <path id="Path_1" data-name="Path 1" d="M40.6,2a6.47,6.47,0,0,1-2,.59A3.73,3.73,0,0,0,40.13.53a6.34,6.34,0,0,1-2.19.92A3.33,3.33,0,0,0,35.42.26a3.7,3.7,0,0,0-3.36,4.62A9.53,9.53,0,0,1,24.94,1,4,4,0,0,0,26,6a3.2,3.2,0,0,1-1.56-.47A3.71,3.71,0,0,0,27.2,9.27a3.14,3.14,0,0,1-1.56.06,3.52,3.52,0,0,0,3.23,2.62,6.56,6.56,0,0,1-5.11,1.56,9.18,9.18,0,0,0,5.29,1.69c6.41,0,10-5.91,9.82-11.2A7.66,7.66,0,0,0,40.6,2Z" transform="translate(-23.76 -0.26)" fill="#fff"/>
</svg>
