<svg xmlns="http://www.w3.org/2000/svg" width="20.72" height="14.952" viewBox="0 0 20.72 14.952">
  <path id="Path_5" data-name="Path 5" d="M175.34,2.12a8.76,8.76,0,0,0-5-1.86l-.24.28a11.69,11.69,0,0,1,4.42,2.26,14.43,14.43,0,0,0-8.94-1.67h-.3a13.72,13.72,0,0,0-4,1.12c-.66.3-1.05.52-1.05.52a11.85,11.85,0,0,1,4.64-2.3l-.18-.21a8.74,8.74,0,0,0-5,1.86,23.8,23.8,0,0,0-2.56,10.36,6.43,6.43,0,0,0,5.42,2.7s.66-.8,1.19-1.47a5.58,5.58,0,0,1-3.11-2.1,4.711,4.711,0,0,0,.5.3l.07.06a.83.83,0,0,1,.16.09,12.221,12.221,0,0,0,1.3.6,14.92,14.92,0,0,0,2.61.76,12.4,12.4,0,0,0,4.6,0,11.7,11.7,0,0,0,2.58-.76,10.19,10.19,0,0,0,2-1,5.58,5.58,0,0,1-3.21,2.11c.53.68,1.17,1.44,1.17,1.44a6.49,6.49,0,0,0,5.44-2.7,23.8,23.8,0,0,0-2.51-10.39ZM164.2,10.83a1.91,1.91,0,0,1-1.82-2,1.82,1.82,0,1,1,3.63,0,1.89,1.89,0,0,1-1.81,2Zm6.48,0a1.91,1.91,0,0,1-1.81-2,1.82,1.82,0,1,1,3.62,0,1.89,1.89,0,0,1-1.81,2Z" transform="translate(-157.13 -0.26)" fill="#fff"/>
</svg>
