<svg xmlns="http://www.w3.org/2000/svg" width="14.902" height="14.861" viewBox="0 0 14.902 14.861">
  <path id="Path_4" data-name="Path 4" d="M137.05,7.83a2.159,2.159,0,0,1-.06.51,2,2,0,0,1-.18.48,1.58,1.58,0,0,1-.29.39,1.74,1.74,0,0,1-.37.3v.13a1.309,1.309,0,0,1,0,.28v.14c0,2.82-2.92,5.11-6.53,5.11s-6.52-2.29-6.52-5.11V9.51a1.8,1.8,0,0,1-.89-1.18,2,2,0,0,1,.22-1.52A1.58,1.58,0,0,1,123.6,6a1.52,1.52,0,0,1,1.3.49,6.42,6.42,0,0,1,1-.65,6.9,6.9,0,0,1,1.1-.48,7.539,7.539,0,0,1,1.13-.3A6.4,6.4,0,0,1,129.26,5l.83-4.37a.35.35,0,0,1,.06-.14.32.32,0,0,1,.22-.17h.14l2.74.61a1.06,1.06,0,0,1,1.37-.54,1.32,1.32,0,0,1,.69,1.44,1.15,1.15,0,0,1-1.15,1A1.2,1.2,0,0,1,133.1,1.7l-2.39-.56L130,5a7.35,7.35,0,0,1,1.14.12,7.75,7.75,0,0,1,3.17,1.43,1.64,1.64,0,0,1,.82-.48,1.53,1.53,0,0,1,.92.1,1.75,1.75,0,0,1,.73.65A2,2,0,0,1,137.05,7.83ZM126,9.57a1.2,1.2,0,0,0,.24.41,1.082,1.082,0,0,0,.79.37,1.15,1.15,0,0,0,1-.78,1.38,1.38,0,0,0-.25-1.37,1,1,0,0,0-1.22-.27,1.32,1.32,0,0,0-.6,1.64Zm6.41,3a.36.36,0,0,0,.09-.23.38.38,0,0,0-.09-.25.28.28,0,0,0-.21-.1.36.36,0,0,0-.22.09,3.9,3.9,0,0,1-.54.36,3.639,3.639,0,0,1-.57.25,4.47,4.47,0,0,1-.61.14,4.28,4.28,0,0,1-.62,0,3.22,3.22,0,0,1-.62,0,3.1,3.1,0,0,1-.6-.15,3.28,3.28,0,0,1-.58-.25,4.6,4.6,0,0,1-.53-.37.28.28,0,0,0-.4,0,.31.31,0,0,0-.09.22.32.32,0,0,0,.07.23,3.32,3.32,0,0,0,.62.44,4.66,4.66,0,0,0,.68.32,4.74,4.74,0,0,0,.72.18,9.14,9.14,0,0,0,1.48,0,4,4,0,0,0,1.4-.5,3.32,3.32,0,0,0,.62-.44Zm-.21-2.14a1,1,0,0,0,.44-.1,1.14,1.14,0,0,0,.38-.28,1.49,1.49,0,0,0,.24-.43,1.41,1.41,0,0,0,.07-.5A1.25,1.25,0,0,0,132.59,8a1,1,0,0,0-1.22.27,1.38,1.38,0,0,0-.24,1.37,1.12,1.12,0,0,0,1,.78Z" transform="translate(-122.148 -0.309)" fill="#fff"/>
</svg>
