<svg xmlns="http://www.w3.org/2000/svg" width="14.76" height="14.86" viewBox="0 0 14.76 14.86">
  <path id="Path_3" data-name="Path 3" d="M97.6,1.63c2,0,2.22,0,3,.05a4.08,4.08,0,0,1,1.38.25,2.37,2.37,0,0,1,.86.56,2.19,2.19,0,0,1,.55.85,4.34,4.34,0,0,1,.26,1.38v6a4.34,4.34,0,0,1-.26,1.38,2.19,2.19,0,0,1-.55.85,2.37,2.37,0,0,1-.86.56,4.08,4.08,0,0,1-1.38.25c-.78,0-1,.05-3,.05s-2.21,0-3-.05a4.2,4.2,0,0,1-1.38-.25,2.42,2.42,0,0,1-.85-.56,2.33,2.33,0,0,1-.56-.85,4.14,4.14,0,0,1-.25-1.38v-6a4.14,4.14,0,0,1,.25-1.38,2.33,2.33,0,0,1,.56-.85,2.42,2.42,0,0,1,.85-.56,4.2,4.2,0,0,1,1.38-.25c.79,0,1-.05,3-.05m0-1.34c-2,0-2.27,0-3.06.05a5.64,5.64,0,0,0-1.8.34,3.76,3.76,0,0,0-1.32.86,3.64,3.64,0,0,0-.85,1.32,5.35,5.35,0,0,0-.35,1.8c0,.79,0,1,0,3.06v3.06a5.35,5.35,0,0,0,.35,1.8,3.64,3.64,0,0,0,.85,1.32,3.76,3.76,0,0,0,1.32.86,5.64,5.64,0,0,0,1.8.34c.79,0,1,.05,3.06.05s2.27,0,3.06-.05a5.71,5.71,0,0,0,1.81-.34,3.63,3.63,0,0,0,1.31-.86,3.54,3.54,0,0,0,.86-1.32,5.37,5.37,0,0,0,.34-1.8c0-.79,0-1,0-3.06V4.66a5.37,5.37,0,0,0-.34-1.8,3.54,3.54,0,0,0-.86-1.32,3.63,3.63,0,0,0-1.31-.86,5.71,5.71,0,0,0-1.81-.34C99.87.3,99.62.29,97.6.29Zm0,3.62a3.81,3.81,0,1,0,2.7,1.112A3.81,3.81,0,0,0,97.6,3.91Zm0,6.29a2.48,2.48,0,1,1,2.48-2.48A2.48,2.48,0,0,1,97.6,10.2Zm4.86-6.44a.89.89,0,1,1-.89-.89A.89.89,0,0,1,102.46,3.76Z" transform="translate(-90.22 -0.29)" fill="#fff"/>
</svg>
