<svg xmlns="http://www.w3.org/2000/svg" viewBox="0 0 246.25 68.42"><defs><style>.cls-1{fill:#666;}</style></defs><g id="Layer_2" data-name="Layer 2"><g id="Definance_-_Website" data-name="Definance - Website"><g id="Website"><g id="Top"><g id="Partners"><path class="cls-1" d="M57.86,33.49V16.81Q43.43,8.4,29,0L0,16.94V51.35L29,68.42c9.75-5.74,19.17-11.14,28.92-16.88,0-4.81,0-9.7,0-14.51L51,41.29V47L29.11,59.82,7,47V21.17L28.85,8.6,51.08,21.44v8.19Z"/><path class="cls-1" d="M51,41.27,37.49,33.36l-9.65,5.75L36,44.05,29,48.34,7,35.42V26.93l13.45,8,9.75-5.66-8.36-5L28.91,20l29,17Z"/><path class="cls-1" d="M102.91,53.31H96.15V37.22H81.82V53.31H75.06v-37h6.76V31.49H96.15V16.27h6.76Z"/><path class="cls-1" d="M125,53.88a13.73,13.73,0,0,1-11.64-5.54,22.07,22.07,0,0,1-4.17-13.67,20.76,20.76,0,0,1,4.43-13.53A14.35,14.35,0,0,1,125.3,15.7a13.9,13.9,0,0,1,11.56,5.44q4.24,5.45,4.25,13.61,0,8.58-4.42,13.85A14.48,14.48,0,0,1,125,53.88Zm.06-5.37a7.81,7.81,0,0,0,6.18-3q2.53-3,2.53-10.82,0-6.38-2.09-10a7,7,0,0,0-6.49-3.62q-8.69,0-8.68,13.81,0,6.69,2.21,10.16A7.1,7.1,0,0,0,125.05,48.51Z"/><path class="cls-1" d="M159.83,53.31h-7.26V22h-10V16.27h27.22V22h-10Z"/><path class="cls-1" d="M173.94,53.31v-37h14.62a21.31,21.31,0,0,1,6.16.76A8.38,8.38,0,0,1,199,20.21a9.28,9.28,0,0,1,1.79,5.67,8.12,8.12,0,0,1-6.82,8.22,9.46,9.46,0,0,1,6,3.17,9.08,9.08,0,0,1,2,5.92,9.89,9.89,0,0,1-2.85,7.2q-2.85,2.93-8.76,2.92Zm6.4-21.49h8.25a5.37,5.37,0,0,0,4-1.49,5.19,5.19,0,0,0,1.47-3.8,4.34,4.34,0,0,0-1.67-3.76,6.6,6.6,0,0,0-3.94-1.21h-8.11Zm0,15.93h8.75a6.32,6.32,0,0,0,4.38-1.44,5.38,5.38,0,0,0,0-7.71,6.19,6.19,0,0,0-4.33-1.49h-8.77Z"/><path class="cls-1" d="M214.91,53.31h-6.77v-37h6.77Z"/><path class="cls-1" d="M236.27,53.31H229V22H219V16.27h27.22V22h-10Z"/></g></g></g></g></g></svg>