<svg xmlns="http://www.w3.org/2000/svg" viewBox="0 0 83.74 84.98"><defs><style>.cls-1{fill:#666;}</style></defs><g id="Layer_2" data-name="Layer 2"><g id="Definance_-_Website" data-name="Definance - Website"><g id="Website"><g id="Top"><g id="Partners"><path class="cls-1" d="M72.8,50.78a4.47,4.47,0,0,1-4.56.3c-1.69-.95-2.59-3.18-2.59-6.22V35.54c0-4.48-1.78-7.66-4.74-8.53-5-1.46-8.75,4.68-10.2,7L41.85,48.34V30.83c-.1-4-1.41-6.45-3.9-7.18-1.64-.48-4.1-.28-6.49,3.37L11.64,58.83a35,35,0,0,1-4-16.35C7.66,23.32,23,7.72,41.85,7.72s34.24,15.6,34.24,34.76v.2c.19,3.71-1,6.66-3.28,8.1Zm10.94-8.29v-.18C83.59,19,64.86,0,41.85,0S0,19.06,0,42.48,18.77,85,41.85,85A41.39,41.39,0,0,0,70.3,73.64a3.89,3.89,0,0,0,.19-5.47,3.76,3.76,0,0,0-5.3-.26h0a33.85,33.85,0,0,1-47.85-1.26c-.31-.33-.62-.67-.92-1L34.25,37V50.21c0,6.36,2.46,8.41,4.53,9S44,59.41,47.32,54l9.85-15.94c.3-.52.6-1,.86-1.34v8.11c0,5.94,2.39,10.69,6.57,13a12,12,0,0,0,12.26-.49c4.6-3,7.1-8.4,6.84-14.91Z"/></g></g></g></g></g></svg>