<svg xmlns="http://www.w3.org/2000/svg" viewBox="0 0 295.03 77.99"><defs><style>.cls-1{fill:#666;}.cls-2{fill:#848786;}.cls-3{fill:#b9bcb9;}.cls-4{fill:#fff;}.cls-5{fill:#848685;}.cls-6{fill:#535354;}.cls-7{fill:#1c1b1c;}</style></defs><g id="Layer_2" data-name="Layer 2"><g id="Definance_-_Website" data-name="Definance - Website"><g id="Website"><g id="Top"><g id="Partners"><path class="cls-1" d="M122,34c-.8-3.12-2.82-5.41-6.79-5.41-5.83,0-8.27,5.15-8.27,10.37s2.44,10.38,8.27,10.38c4.24,0,6.56-3.17,6.94-7.14h4.66c-.39,6.53-5,11-11.6,11-8.16,0-13-6.49-13-14.27s4.88-14.26,13-14.26c6.14,0,11,3.43,11.56,9.3Z"/><path class="cls-1" d="M129.58,42.73c0-6,3.62-10.37,9.95-10.37s10,4.34,10,10.37-3.63,10.41-10,10.41S129.58,48.79,129.58,42.73Zm15.56,0c0-3.39-1.72-6.94-5.61-6.94s-5.6,3.55-5.6,6.94,1.71,7,5.6,7S145.14,46.16,145.14,42.73Z"/><path class="cls-1" d="M153.22,25.38h4.35V29.5h-4.35Zm0,7.51h4.35V52.61h-4.35Z"/><path class="cls-1" d="M162.3,32.89h4.12v2.9l.08.08a7,7,0,0,1,6.14-3.51c4.27,0,7,2.29,7,6.71V52.61h-4.35V40.21c-.08-3.09-1.3-4.42-3.85-4.42-2.9,0-4.77,2.29-4.77,5.19V52.61H162.3Z"/><path class="cls-1" d="M208.56,52.61h-3.05l-.72-3.21c-2.56,2.9-4.88,3.86-8.2,3.86-8.16,0-13-6.49-13-14.27s4.88-14.26,13-14.26c5.95,0,10.94,3.16,11.67,9.3h-4.65c-.46-3.58-3.59-5.41-7-5.41-5.84,0-8.28,5.15-8.28,10.37s2.44,10.38,8.28,10.38c4.88.07,7.55-2.86,7.63-7.48H197V38.27h11.59Z"/><path class="cls-1" d="M216.54,43.87c0,3.09,1.67,5.84,5.3,5.84a4.57,4.57,0,0,0,4.8-3.28h4.12c-.95,4.31-4.61,6.71-8.92,6.71-6.18,0-9.65-4.31-9.65-10.37,0-5.61,3.66-10.41,9.53-10.41,6.22,0,10,5.6,9.31,11.51ZM226.68,41c-.15-2.74-2-5.22-5-5.22A5.15,5.15,0,0,0,216.54,41Z"/><path class="cls-1" d="M247.66,39.49a4.18,4.18,0,0,0-4.5-3.7c-2.25,0-5.42,1.18-5.42,7.17,0,3.28,1.45,6.75,5.23,6.75,2.51,0,4.27-1.68,4.69-4.5H252c-.81,5.11-4,7.93-9,7.93-6.18,0-9.58-4.38-9.58-10.18,0-6,3.25-10.6,9.73-10.6,4.58,0,8.47,2.29,8.89,7.13Z"/><path class="cls-1" d="M255.67,25.38H260V40.86l7.85-8h5.34l-7.55,7.25,8.28,12.47h-5.31l-6-9.57L260,45.55v7.06h-4.35Z"/><path class="cls-1" d="M275.12,42.73c0-6,3.62-10.37,9.95-10.37s10,4.34,10,10.37-3.63,10.41-10,10.41S275.12,48.79,275.12,42.73Zm15.56,0c0-3.39-1.72-6.94-5.61-6.94s-5.6,3.55-5.6,6.94,1.71,7,5.6,7S290.68,46.16,290.68,42.73Z"/><path class="cls-2" d="M78,38.82A39,39,0,1,1,38.82,0,39,39,0,0,1,78,38.82Z"/><path class="cls-3" d="M75.05,38.83A36.06,36.06,0,1,1,38.83,2.94,36.05,36.05,0,0,1,75.05,38.83Z"/><path class="cls-4" d="M39.65,5.27a19.91,19.91,0,0,1,6.93,0A21,21,0,0,1,53.2,7.48a38.18,38.18,0,0,1,5.6,4.1C60.57,13,62.33,14.49,64,16.09a26,26,0,0,1,4.43,5.36,30.24,30.24,0,0,1,3.12,6.26,28.57,28.57,0,0,1,1.27,13.73H72.6a64.64,64.64,0,0,0-3.37-12.88,51,51,0,0,0-2.67-6,59.19,59.19,0,0,0-3.51-5.63,20.38,20.38,0,0,0-4.7-4.75,27.18,27.18,0,0,0-6-2.95A64.32,64.32,0,0,0,46.18,7C44.07,6.39,41.9,6,39.65,5.51Z"/><path class="cls-5" d="M57.28,26.09c-2.62-.76-5.33-1.83-8.08-2.92a5.61,5.61,0,0,0-2-2.59C45.41,19,42,19.06,39.12,19.75a20.17,20.17,0,0,0-9.44-.29C4.75,26.33,18.89,43.08,9.74,59.93,11,62.69,25.08,78.81,45.39,74.48c0,0-7-16.69,8.73-24.7C66.84,43.28,76,31.21,57.28,26.09Z"/><path class="cls-4" d="M60.36,37.07a1.52,1.52,0,1,1-1.52-1.51A1.52,1.52,0,0,1,60.36,37.07Z"/><path class="cls-6" d="M39.12,19.75c1.82.13,8.39,2.27,10.08,3.42-1.4-4.09-6.16-4.64-10.08-3.42Z"/><path class="cls-4" d="M40.85,30.11a7,7,0,1,1-7-7A7,7,0,0,1,40.85,30.11Z"/><path class="cls-7" d="M38.78,30.17a4.9,4.9,0,1,1-4.9-4.9A4.9,4.9,0,0,1,38.78,30.17Z"/><path class="cls-5" d="M66,40.14a34.83,34.83,0,0,1-21.18,7c-4.27,0-5.13-4.53-8-2.31-1.46,1.15-6.59,3.71-10.66,3.52S15.54,45.76,13.7,37.07C13,45.76,12.6,52.17,9.33,59.5c6.5,10.41,22,18.43,36.06,15C43.88,63.93,53.1,53.6,58.3,48.31c2-2,5.73-5.28,7.7-8.17Z"/><path class="cls-7" d="M65.78,40.4a25.37,25.37,0,0,1-6,3.83,38.6,38.6,0,0,1-6.7,2.44,21.16,21.16,0,0,1-7.14.82,9.82,9.82,0,0,1-6.54-2.87l.08-.09a12.56,12.56,0,0,0,6.53,1.8,30.62,30.62,0,0,0,6.86-.57,37.28,37.28,0,0,0,6.67-2.06,24.82,24.82,0,0,0,6.13-3.39Z"/></g></g></g></g></g></svg>