<svg xmlns="http://www.w3.org/2000/svg" viewBox="0 0 274.15 51.81"><defs><style>.cls-1{fill:#666;}</style></defs><g id="Layer_2" data-name="Layer 2"><g id="Definance_-_Website" data-name="Definance - Website"><g id="Website"><g id="Top"><g id="Partners"><g id="页面-1"><g id="lbank-logo"><path class="cls-1" d="M25.91,0a25.91,25.91,0,1,0,25.9,25.91A26.13,26.13,0,0,0,25.91,0Zm2.35,30.15a3.35,3.35,0,0,1,1.18,2.59,3.62,3.62,0,0,1-3.53,3.53,3.76,3.76,0,0,1-2.59-1.18,6.89,6.89,0,0,0-9,0l-.24.24a4.19,4.19,0,0,1-2.35.94,3,3,0,0,1-2.36-.94L9,34.86v-.24l-.24-.23c0-.24-.23-.47-.23-.71s-.24-.71-.24-.94h0c0-.47,0-.71.24-.94,0-.24.23-.48.23-.71A.24.24,0,0,1,9,30.85v-.23c.47,0,.47,0,.47-.24l.24-.23h0a6.79,6.79,0,0,0,1.65-4.24,5.71,5.71,0,0,0-1.65-4.24,5.08,5.08,0,0,1-.95-2.83,3.62,3.62,0,0,1,3.54-3.53,3.42,3.42,0,0,1,3.29,3.53,3.79,3.79,0,0,1-1.17,2.59,7.4,7.4,0,0,0-1.65,4.48,7.38,7.38,0,0,0,1.65,4.47l.23.24h0a6.79,6.79,0,0,0,4.24,1.65,5.67,5.67,0,0,0,4.24-1.65c0-.24.24-.24.47-.47h0a6.79,6.79,0,0,0,1.65-4.24,5.67,5.67,0,0,0-1.65-4.24,3.94,3.94,0,0,1-1.18-2.83,3.54,3.54,0,0,1,7.07,0,3.76,3.76,0,0,1-1.18,2.59,6.93,6.93,0,0,0-1.65,4.48A5.71,5.71,0,0,0,28.26,30.15Zm4.48-.95a3.53,3.53,0,1,1,3.53-3.53A3.47,3.47,0,0,1,32.74,29.2Zm9.18.95h0c.24.47.47.47.47.47v.23l.24.24c0,.23.24.47.24.71s.23.7.23.94h0c0,.47,0,.7-.23.94,0,.24-.24.47-.24.71a.23.23,0,0,1-.24.23v.24l-.47.47a4.16,4.16,0,0,1-2.35.94,3.06,3.06,0,0,1-2.36-.94l-.47-.47v-.24l-.23-.23c0-.24-.24-.47-.24-.71S36,33,36,32.74h0c0-.47,0-.71.24-.94,0-.24.24-.48.24-.71a.23.23,0,0,1,.23-.24v-.23l.24-.24.23-.23a6.79,6.79,0,0,0,1.65-4.24,5.67,5.67,0,0,0-1.65-4.24A3.82,3.82,0,0,1,36,19.08a3.54,3.54,0,1,1,7.07,0,3.78,3.78,0,0,1-1.18,2.59,6.93,6.93,0,0,0-1.65,4.47A6.7,6.7,0,0,0,41.92,30.15Z"/><polygon class="cls-1" points="74.19 45.22 74.19 6.36 84.08 6.36 84.08 37.45 101.51 37.45 101.51 45.22 74.19 45.22"/><polygon class="cls-1" points="274.15 45.22 254.84 25.91 274.15 6.59 260.02 6.59 247.77 18.84 247.77 6.36 237.88 6.36 237.88 45.22 247.77 45.22 247.77 32.97 260.02 45.22 274.15 45.22"/><polygon class="cls-1" points="161.33 37.68 158.98 45.22 148.62 45.22 162.04 6.36 175.23 6.36 188.65 45.22 178.29 45.22 175.94 37.68 173.58 30.38 168.63 14.13 163.45 30.38 161.33 37.68"/><polygon class="cls-1" points="204.67 19.78 204.67 45.22 195.25 45.22 195.25 6.36 207.5 6.36 222.1 32.97 222.1 6.36 231.52 6.36 231.52 45.22 219.27 45.22 204.67 19.78"/><path class="cls-1" d="M141.31,30.15a13.08,13.08,0,0,0-1.88-3.06,8.44,8.44,0,0,0-2.83-1.89,14.93,14.93,0,0,0-3.06-.94,13.62,13.62,0,0,0,2.83-.94,8.49,8.49,0,0,0,2.35-1.65,4.7,4.7,0,0,0,1.42-2.59,7.5,7.5,0,0,0,.47-3.3,18.48,18.48,0,0,0-.47-3.53A6.69,6.69,0,0,0,138,9.19a8.3,8.3,0,0,0-3.77-2.12,20.86,20.86,0,0,0-5.89-.71H107.87V45.22h21.9c4,0,6.83-.94,8.95-2.83s3.06-4.47,3.06-7.77A9.34,9.34,0,0,0,141.31,30.15ZM118,12.72h10.36a6.92,6.92,0,0,1,2.36.47,3.75,3.75,0,0,1,1.64.94,5.07,5.07,0,0,1,.95,1.41,3.61,3.61,0,0,1,.23,1.65,4.44,4.44,0,0,1-1.18,3.06c-.7.95-2.12,1.18-4,1.18H118ZM133.54,37c-.71.94-2.12,1.17-4,1.17H118V29.44h11.54a7,7,0,0,1,2.35.47,3.83,3.83,0,0,1,1.65.94,4.85,4.85,0,0,1,.94,1.42,3.43,3.43,0,0,1,.24,1.65A3.63,3.63,0,0,1,133.54,37Z"/></g></g></g></g></g></g></g></svg>