<svg xmlns="http://www.w3.org/2000/svg" xmlns:xlink="http://www.w3.org/1999/xlink" viewBox="0 0 998.69 1108.93"><defs><style>.cls-1{opacity:0.82;fill:url(#linear-gradient);}.cls-12,.cls-2,.cls-3,.cls-4,.cls-48,.cls-5,.cls-6,.cls-7,.cls-8,.cls-9{fill:none;}.cls-12,.cls-13,.cls-14,.cls-2,.cls-3,.cls-4,.cls-48,.cls-5,.cls-6,.cls-7,.cls-8{stroke-miterlimit:10;}.cls-13,.cls-2,.cls-3,.cls-4,.cls-5,.cls-6,.cls-7,.cls-8{stroke-width:2px;}.cls-2{stroke:url(#radial-gradient);}.cls-3{stroke:url(#radial-gradient-2);}.cls-4{stroke:url(#radial-gradient-3);}.cls-5{stroke:url(#radial-gradient-4);}.cls-10,.cls-12,.cls-13,.cls-14,.cls-6,.cls-7,.cls-9{stroke:#fff;}.cls-6{opacity:0.33;}.cls-7{opacity:0.69;}.cls-8{stroke:url(#radial-gradient-5);}.cls-10,.cls-9{stroke-miterlimit:1;}.cls-10{fill:#070707;}.cls-11{fill:#282828;}.cls-14,.cls-15,.cls-30,.cls-41,.cls-45{fill:#fff;}.cls-15{font-size:32.49px;}.cls-15,.cls-19,.cls-23,.cls-30,.cls-45{font-family:Gilroy-ExtraBold, Gilroy;font-weight:800;}.cls-16{letter-spacing:-0.01em;}.cls-17{letter-spacing:-0.06em;}.cls-18{letter-spacing:0em;}.cls-19{font-size:24.38px;}.cls-19,.cls-23{fill:#999;}.cls-20{letter-spacing:0em;}.cls-21{letter-spacing:-0.02em;}.cls-22{letter-spacing:-0.01em;}.cls-23{font-size:24.38px;}.cls-24{letter-spacing:-0.03em;}.cls-25{letter-spacing:0.02em;}.cls-26{letter-spacing:-0.04em;}.cls-27{letter-spacing:-0.02em;}.cls-28{letter-spacing:0em;}.cls-29{letter-spacing:-0.06em;}.cls-30{font-size:42.41px;}.cls-31{letter-spacing:-0.01em;}.cls-32{letter-spacing:-0.03em;}.cls-33{letter-spacing:0.01em;}.cls-34{letter-spacing:0em;}.cls-35{letter-spacing:-0.01em;}.cls-36{letter-spacing:-0.01em;}.cls-37{letter-spacing:-0.02em;}.cls-38{letter-spacing:-0.02em;}.cls-39{letter-spacing:0em;}.cls-40{fill:#18c5ed;}.cls-42{fill:#1aace5;}.cls-43{fill:#2d0533;}.cls-44{fill:#01ffa3;}.cls-45{font-size:108.08px;}.cls-46{letter-spacing:-0.06em;}.cls-47{letter-spacing:-0.01em;}.cls-48{stroke:#ff791f;stroke-width:12px;}</style><linearGradient id="linear-gradient" x1="-123.47" y1="-23.35" x2="1152.75" y2="945.16" gradientUnits="userSpaceOnUse"><stop offset="0" stop-color="#fff"/><stop offset="0.03" stop-color="#fff" stop-opacity="0.95"/><stop offset="0.19" stop-color="#fff" stop-opacity="0.7"/><stop offset="0.35" stop-color="#fff" stop-opacity="0.49"/><stop offset="0.5" stop-color="#fff" stop-opacity="0.31"/><stop offset="0.64" stop-color="#fff" stop-opacity="0.18"/><stop offset="0.77" stop-color="#fff" stop-opacity="0.08"/><stop offset="0.9" stop-color="#fff" stop-opacity="0.02"/><stop offset="1" stop-color="#fff" stop-opacity="0"/></linearGradient><radialGradient id="radial-gradient" cx="498.93" cy="599.39" r="504.26" gradientUnits="userSpaceOnUse"><stop offset="0" stop-color="#fff"/><stop offset="1" stop-color="#fff" stop-opacity="0"/></radialGradient><radialGradient id="radial-gradient-2" cx="790.38" cy="707.44" r="311.04" xlink:href="#radial-gradient"/><radialGradient id="radial-gradient-3" cx="806.23" cy="716.01" r="306.3" xlink:href="#radial-gradient"/><radialGradient id="radial-gradient-4" cx="815.05" cy="10080.26" r="303.91" gradientTransform="translate(1630.11 10800.6) rotate(180)" xlink:href="#radial-gradient"/><radialGradient id="radial-gradient-5" cx="129.33" cy="897.97" r="120.3" xlink:href="#radial-gradient"/></defs><g id="Layer_2" data-name="Layer 2"><g id="Definance_-_Website" data-name="Definance - Website"><g id="Website"><g id="Trade"><g id="Phone"><path class="cls-1" d="M57.32,2.63A2.63,2.63,0,1,1,54.69,0,2.62,2.62,0,0,1,57.32,2.63ZM155.06,0a2.63,2.63,0,1,0,2.63,2.63A2.62,2.62,0,0,0,155.06,0ZM255.44,0a2.63,2.63,0,1,0,2.62,2.63A2.63,2.63,0,0,0,255.44,0ZM355.81,0a2.63,2.63,0,1,0,2.63,2.63A2.63,2.63,0,0,0,355.81,0ZM456.18,0a2.63,2.63,0,1,0,2.63,2.63A2.62,2.62,0,0,0,456.18,0ZM556.56,0a2.63,2.63,0,1,0,2.62,2.63A2.63,2.63,0,0,0,556.56,0ZM656.93,0a2.63,2.63,0,1,0,2.63,2.63A2.62,2.62,0,0,0,656.93,0ZM757.31,0a2.63,2.63,0,1,0,2.62,2.63A2.63,2.63,0,0,0,757.31,0ZM857.68,0a2.63,2.63,0,1,0,2.62,2.63A2.63,2.63,0,0,0,857.68,0ZM958.05,0a2.63,2.63,0,1,0,2.63,2.63A2.62,2.62,0,0,0,958.05,0ZM54.69,100.44a2.63,2.63,0,1,0,2.63,2.63A2.63,2.63,0,0,0,54.69,100.44Zm100.37,0a2.63,2.63,0,1,0,2.63,2.63A2.62,2.62,0,0,0,155.06,100.44Zm100.38,0a2.63,2.63,0,1,0,2.62,2.63A2.63,2.63,0,0,0,255.44,100.44Zm100.37,0a2.63,2.63,0,1,0,2.63,2.63A2.63,2.63,0,0,0,355.81,100.44Zm100.37,0a2.63,2.63,0,1,0,2.63,2.63A2.62,2.62,0,0,0,456.18,100.44ZM54.69,200.89a2.63,2.63,0,1,0,2.63,2.63A2.63,2.63,0,0,0,54.69,200.89Zm100.37,0a2.63,2.63,0,1,0,2.63,2.63A2.62,2.62,0,0,0,155.06,200.89Zm100.38,0a2.63,2.63,0,1,0,2.62,2.63A2.63,2.63,0,0,0,255.44,200.89Zm100.37,0a2.63,2.63,0,1,0,2.63,2.63A2.63,2.63,0,0,0,355.81,200.89Zm100.37,0a2.63,2.63,0,1,0,2.63,2.63A2.62,2.62,0,0,0,456.18,200.89ZM54.69,301.33A2.63,2.63,0,1,0,57.32,304,2.63,2.63,0,0,0,54.69,301.33Zm100.37,0a2.63,2.63,0,1,0,2.63,2.63A2.62,2.62,0,0,0,155.06,301.33Zm100.38,0a2.63,2.63,0,1,0,2.62,2.63A2.63,2.63,0,0,0,255.44,301.33Zm100.37,0a2.63,2.63,0,1,0,2.63,2.63A2.63,2.63,0,0,0,355.81,301.33Zm100.37,0a2.63,2.63,0,1,0,2.63,2.63A2.62,2.62,0,0,0,456.18,301.33Zm100.38,0a2.63,2.63,0,1,0,2.62,2.63A2.63,2.63,0,0,0,556.56,301.33Zm100.37,0a2.63,2.63,0,1,0,2.63,2.63A2.62,2.62,0,0,0,656.93,301.33Zm100.38,0a2.63,2.63,0,1,0,2.62,2.63A2.63,2.63,0,0,0,757.31,301.33Zm100.37,0A2.63,2.63,0,1,0,860.3,304,2.63,2.63,0,0,0,857.68,301.33Zm-803,100.45a2.63,2.63,0,1,0,2.63,2.62A2.62,2.62,0,0,0,54.69,401.78Zm100.37,0a2.63,2.63,0,1,0,2.63,2.62A2.62,2.62,0,0,0,155.06,401.78Zm100.38,0a2.63,2.63,0,1,0,2.62,2.62A2.62,2.62,0,0,0,255.44,401.78Zm100.37,0a2.63,2.63,0,1,0,2.63,2.62A2.62,2.62,0,0,0,355.81,401.78Zm100.37,0a2.63,2.63,0,1,0,2.63,2.62A2.62,2.62,0,0,0,456.18,401.78Zm100.38,0a2.63,2.63,0,1,0,2.62,2.62A2.62,2.62,0,0,0,556.56,401.78Zm100.37,0a2.63,2.63,0,1,0,2.63,2.62A2.62,2.62,0,0,0,656.93,401.78Zm100.38,0a2.63,2.63,0,1,0,2.62,2.62A2.62,2.62,0,0,0,757.31,401.78Zm100.37,0a2.63,2.63,0,1,0,2.62,2.62A2.62,2.62,0,0,0,857.68,401.78Zm-803,100.44a2.63,2.63,0,1,0,2.63,2.63A2.63,2.63,0,0,0,54.69,502.22Zm100.37,0a2.63,2.63,0,1,0,2.63,2.63A2.62,2.62,0,0,0,155.06,502.22Zm100.38,0a2.63,2.63,0,1,0,2.62,2.63A2.63,2.63,0,0,0,255.44,502.22Zm100.37,0a2.63,2.63,0,1,0,2.63,2.63A2.63,2.63,0,0,0,355.81,502.22Zm100.37,0a2.63,2.63,0,1,0,2.63,2.63A2.62,2.62,0,0,0,456.18,502.22Zm100.38,0a2.63,2.63,0,1,0,2.62,2.63A2.63,2.63,0,0,0,556.56,502.22Zm100.37,0a2.63,2.63,0,1,0,2.63,2.63A2.62,2.62,0,0,0,656.93,502.22Zm100.38,0a2.63,2.63,0,1,0,2.62,2.63A2.63,2.63,0,0,0,757.31,502.22ZM54.69,602.67a2.63,2.63,0,1,0,2.63,2.62A2.62,2.62,0,0,0,54.69,602.67Zm100.37,0a2.63,2.63,0,1,0,2.63,2.62A2.62,2.62,0,0,0,155.06,602.67ZM54.69,703.11a2.63,2.63,0,1,0,2.63,2.63A2.63,2.63,0,0,0,54.69,703.11Zm100.37,0a2.63,2.63,0,1,0,2.63,2.63A2.62,2.62,0,0,0,155.06,703.11ZM54.69,803.56a2.63,2.63,0,1,0,2.63,2.62A2.62,2.62,0,0,0,54.69,803.56Zm0,100.44a2.63,2.63,0,1,0,2.63,2.63A2.63,2.63,0,0,0,54.69,904Z"/><path class="cls-2" d="M691,1108.5c86.24-183.81,203.63-434.43,289.86-618.23l16-34.36q-1.71-29.21-3.41-58.41-9-153.31-17.92-306.63L578.32,96.21a121.54,121.54,0,0,0-83.48,47.26c-19.93,37.28-35.72,67.13-45.33,85.33-46,87.06-71,136.15-142.1,273-16.81,32.34-30.25,58.15-37.59,72.24C189.17,730.27,81.54,939,.89,1095.3"/><path class="cls-3" d="M602.44,1104.29c115.44-243.75,260.45-550,375.88-793.71"/><path class="cls-4" d="M622.07,1107.23C737.5,863.48,875,568.55,990.4,324.8"/><path class="cls-5" d="M997.78,332.18c-115.44,243.75-250,532.57-365.45,776.32"/><rect class="cls-6" x="762.67" y="814.86" width="24.51" height="105.67" rx="12.25" transform="translate(446.05 -248.21) rotate(25.35)"/><rect class="cls-6" x="946.48" y="419.5" width="16.47" height="128.23" rx="8.23" transform="translate(298.93 -362.15) rotate(25.35)"/><path class="cls-7" d="M206.59,747.31,504,167.28a94,94,0,0,1,33.21-36.78,89.92,89.92,0,0,1,15.82-8l.05,0a78.55,78.55,0,0,1,27.37-5.21l70.23-.77a8.5,8.5,0,0,1,7.8,4.62c.1.21.19.42.28.64,2.69,6.91-5.09,13.23-2.87,20.56a9.71,9.71,0,0,0,1.5,3,11,11,0,0,0,8.9,4.37l235.56-.22a18.53,18.53,0,0,0,7.85-2.22c9.15-5.11,6.87-15.29,17.33-25A33.35,33.35,0,0,1,939,114.88a31.38,31.38,0,0,1,10.89-1.63h23.73"/><line class="cls-8" x1="52.06" y1="1048.64" x2="206.59" y2="747.31"/><path class="cls-9" d="M365.93,689.43l-69.53-.49a8.64,8.64,0,0,1-7.53-4.26,7.86,7.86,0,0,1-.36-.71,8.94,8.94,0,0,1-.71-2.31,8.53,8.53,0,0,1,.88-5.36l30.75-60a7.08,7.08,0,0,1,.38-.66,20.57,20.57,0,0,1,15.87-9.48l.59,0,66.81-.24a8.79,8.79,0,0,1,8.32,5.65l0,.11a11.62,11.62,0,0,1,.4,6.34,8.66,8.66,0,0,1-.71,2q-14.55,29.2-29.08,58.41a18.19,18.19,0,0,1-16.11,11.08Z"/><path class="cls-10" d="M490.33,689.43l-69.52-.49a8.64,8.64,0,0,1-7.53-4.26,7.86,7.86,0,0,1-.36-.71,8.94,8.94,0,0,1-.71-2.31,8.53,8.53,0,0,1,.88-5.36l30.75-60a7.08,7.08,0,0,1,.38-.66,20.57,20.57,0,0,1,15.87-9.48l.59,0,66.81-.24a8.79,8.79,0,0,1,8.32,5.65l0,.11a11.72,11.72,0,0,1,.4,6.34,8.66,8.66,0,0,1-.71,2q-14.55,29.2-29.08,58.41a18.19,18.19,0,0,1-16.12,11.08Z"/><path class="cls-10" d="M614.74,689.43l-69.52-.49a8.64,8.64,0,0,1-7.53-4.26,7.86,7.86,0,0,1-.36-.71,8.94,8.94,0,0,1-.71-2.31,8.53,8.53,0,0,1,.88-5.36l30.75-60a5.38,5.38,0,0,1,.38-.66,20.57,20.57,0,0,1,15.87-9.48l.59,0,66.81-.24a8.79,8.79,0,0,1,8.32,5.65l0,.11a11.72,11.72,0,0,1,.4,6.34,8.66,8.66,0,0,1-.71,2q-14.55,29.2-29.08,58.41a18.19,18.19,0,0,1-16.12,11.08Z"/><path class="cls-10" d="M739.15,689.43l-69.52-.49a8.62,8.62,0,0,1-7.53-4.26,7.86,7.86,0,0,1-.36-.71,8.94,8.94,0,0,1-.71-2.31,8.53,8.53,0,0,1,.88-5.36l30.75-60a7,7,0,0,1,.37-.66,20.61,20.61,0,0,1,15.88-9.48l.59,0,66.81-.24a8.79,8.79,0,0,1,8.32,5.65l0,.11a11.72,11.72,0,0,1,.4,6.34,8.66,8.66,0,0,1-.71,2q-14.55,29.2-29.08,58.41a18.19,18.19,0,0,1-16.12,11.08Z"/><path class="cls-11" d="M461.55,322l464,.13a10.22,10.22,0,0,1,5.1,1.28,8.87,8.87,0,0,1,2.29,1.9c2.63,3.13,2.66,8.05-.07,12.22-.17.27-.34.55-.49.83q-58,110.52-116,221a9.75,9.75,0,0,1-.77,1.23,33.94,33.94,0,0,1-11.11,9.69,35.89,35.89,0,0,1-12.28,4,10.66,10.66,0,0,1-1.49.1l-463-.32a10.45,10.45,0,0,1-4.45-1,10.2,10.2,0,0,1-4.49-4c-2.95-4.9,0-9.93.11-10.16L437,335.08a8.62,8.62,0,0,1,1-1.58,31.16,31.16,0,0,1,9.73-7.88A33,33,0,0,1,460.92,322Z"/><path class="cls-12" d="M261.92,732.1l464,.13a10.22,10.22,0,0,1,5.1,1.28,8.55,8.55,0,0,1,2.29,1.9c2.63,3.14,2.67,8.05-.06,12.22-.18.27-.35.55-.5.83l-116,221a9.75,9.75,0,0,1-.77,1.23,33.94,33.94,0,0,1-11.11,9.69,35.83,35.83,0,0,1-12.28,4,10.66,10.66,0,0,1-1.49.1l-463-.32a10.45,10.45,0,0,1-4.45-1,10.26,10.26,0,0,1-4.49-4c-2.94-4.9,0-9.93.11-10.16q59.06-112,118.09-223.95a9.17,9.17,0,0,1,1-1.58,31.24,31.24,0,0,1,9.74-7.88,32.94,32.94,0,0,1,13.14-3.62Z"/><path class="cls-13" d="M316.15,228.06l610.52.18a13,13,0,0,1,6.72,1.78,11.59,11.59,0,0,1,3,2.63c3.46,4.34,3.51,11.14-.09,16.93a12.86,12.86,0,0,0-.65,1.14L783,556.87a14.75,14.75,0,0,1-1,1.71,45.17,45.17,0,0,1-30.78,19,14.24,14.24,0,0,1-2,.14l-609.19-.44a13.21,13.21,0,0,1-5.86-1.34,13.66,13.66,0,0,1-5.91-5.48c-3.87-6.79,0-13.75.15-14.07L283.85,246.2a12.38,12.38,0,0,1,1.37-2.19,41.49,41.49,0,0,1,30.1-15.93Z"/><path class="cls-14" d="M368.48,634.9l-33.33,21.33"/><path class="cls-14" d="M344.48,638.89l-9.33,17.34"/><path class="cls-14" d="M353.82,653.56l-18.67,2.67"/><path class="cls-14" d="M468.52,660.23l14.66-26.68"/><path class="cls-14" d="M460.52,646.91l30.68,0"/><path class="cls-14" d="M608.54,656.26q-7.32-10.69-14.65-21.37"/><path class="cls-14" d="M612.62,636.32l-18.45-1"/><path class="cls-14" d="M587.23,650.87l6.94-15.57"/><g id="Lower_-_Card" data-name="Lower - Card"><text class="cls-15" transform="translate(322.5 768.81)">DeFinan<tspan class="cls-16" x="125.38" y="0">c</tspan><tspan x="142.14" y="0">e </tspan><tspan class="cls-17" x="169.11" y="0">T</tspan><tspan class="cls-16" x="184.7" y="0">r</tspan><tspan class="cls-18" x="196.24" y="0">ading</tspan></text><text class="cls-19" transform="translate(330.39 817.37)"><tspan class="cls-20">La</tspan><tspan class="cls-21" x="26.65" y="0">s</tspan><tspan x="37.58" y="0">t Upda</tspan><tspan class="cls-21" x="114.56" y="0">t</tspan><tspan x="123.53" y="0">e </tspan><tspan class="cls-20" x="143.77" y="0">A</tspan><tspan x="160.23" y="0">u</tspan><tspan class="cls-22" x="174.44" y="0">g</tspan><tspan class="cls-21" x="189.51" y="0">s</tspan><tspan x="200.44" y="0">t 2, 7 PM</tspan></text><text class="cls-23" transform="translate(201.65 921.6)"><tspan class="cls-24">P</tspan><tspan x="13.65" y="0">o</tspan><tspan class="cls-25" x="28.04" y="0">r</tspan><tspan class="cls-26" x="37.42" y="0">t</tspan><tspan class="cls-27" x="46.03" y="0">f</tspan><tspan class="cls-28" x="53.71" y="0">olio </tspan><tspan class="cls-29" x="101.24" y="0">V</tspan><tspan x="115.87" y="0">alue</tspan></text><text class="cls-30" transform="translate(199.26 983.96)">$1<tspan class="cls-31" x="40.33" y="0">2</tspan><tspan class="cls-32" x="62.5" y="0">0</tspan><tspan x="87.95" y="0">,</tspan><tspan class="cls-33" x="100.25" y="0">4</tspan><tspan x="125.26" y="0">80</tspan></text><text class="cls-30" transform="translate(506.59 983.96)"><tspan class="cls-32">0</tspan><tspan x="25.44" y="0">.</tspan><tspan class="cls-31" x="37.32" y="0">32</tspan><tspan class="cls-34" x="82.39" y="0">%</tspan></text><text class="cls-23" transform="translate(509.38 921.6)"><tspan class="cls-35">P</tspan><tspan class="cls-36" x="14.14" y="0">ro</tspan><tspan x="36.81" y="0">fit </tspan><tspan class="cls-37" x="66.26" y="0">R</tspan><tspan x="80.64" y="0">a</tspan><tspan class="cls-38" x="95.83" y="0">t</tspan><tspan class="cls-39" x="104.8" y="0">e</tspan></text><rect class="cls-40" x="204.42" y="756.15" width="56.31" height="45.05"/><rect class="cls-41" x="204.42" y="722.37" width="56.31" height="11.26"/><rect class="cls-41" x="159.38" y="767.42" width="56.31" height="11.26" transform="translate(960.58 585.52) rotate(90)"/><rect class="cls-41" x="249.47" y="767.42" width="56.31" height="11.26" transform="translate(1050.68 495.42) rotate(90)"/><rect class="cls-42" x="198.79" y="818.1" width="22.52" height="11.26" transform="translate(1033.78 613.67) rotate(90)"/><rect class="cls-42" x="255.11" y="829.36" width="22.53" height="11.26" transform="translate(1101.36 568.62) rotate(90)"/><rect class="cls-42" x="221.32" y="818.1" width="22.52" height="11.26" transform="translate(1056.31 591.15) rotate(90)"/><rect class="cls-42" x="249.47" y="812.47" width="11.26" height="11.26" transform="translate(1073.2 562.99) rotate(90)"/><polygon class="cls-42" points="204.43 744.89 204.43 756.15 238.21 756.15 238.21 778.68 215.69 778.68 215.69 789.94 238.21 789.94 249.47 789.94 249.47 778.68 249.47 756.15 260.74 756.15 260.74 744.89 204.43 744.89"/><rect class="cls-41" x="215.69" y="756.15" width="22.52" height="22.52" transform="translate(994.37 540.47) rotate(90)"/><rect class="cls-43" x="215.69" y="756.15" width="11.26" height="11.26"/><rect class="cls-42" x="193.16" y="834.99" width="11.26" height="11.26"/><rect class="cls-42" x="238.21" y="834.99" width="11.26" height="11.26"/><rect class="cls-41" x="193.16" y="733.63" width="11.26" height="11.26"/><rect class="cls-41" x="193.16" y="801.2" width="78.84" height="11.26"/><rect class="cls-41" x="260.74" y="733.63" width="11.26" height="11.26"/><polygon class="cls-44" points="499.32 983.96 485.01 983.96 492.17 974.88 492.17 974.88 499.32 983.96"/></g><g id="Upper_-_Card" data-name="Upper - Card"><text class="cls-45" transform="translate(303.06 428.15)">De<tspan class="cls-46" x="139.41" y="0">T</tspan><tspan class="cls-47" x="191.29" y="0">r</tspan><tspan x="229.66" y="0">ade</tspan></text><rect class="cls-48" x="726.82" y="326.94" width="44.47" height="44.47" rx="22.23"/></g></g></g></g></g></g></svg>