<svg xmlns="http://www.w3.org/2000/svg" xmlns:xlink="http://www.w3.org/1999/xlink" viewBox="0 0 141.88 46.09"><defs><style>.cls-1{mask:url(#mask);filter:url(#luminosity-noclip-3);}.cls-16,.cls-2,.cls-4,.cls-8{mix-blend-mode:multiply;}.cls-2{fill:url(#radial-gradient);}.cls-3{mask:url(#mask-2);filter:url(#luminosity-noclip-4);}.cls-4{fill:url(#radial-gradient-2);}.cls-5{isolation:isolate;}.cls-6{fill:url(#linear-gradient);}.cls-7{fill:url(#linear-gradient-2);}.cls-8{fill:url(#linear-gradient-3);}.cls-9{fill:url(#linear-gradient-4);}.cls-10{fill:url(#linear-gradient-5);}.cls-11{mix-blend-mode:screen;}.cls-12{mask:url(#mask-3);}.cls-13{fill:url(#radial-gradient-3);}.cls-14{mask:url(#mask-4);}.cls-15{fill:url(#radial-gradient-4);}.cls-16{fill:url(#linear-gradient-6);}.cls-17{fill:#fff;}.cls-18{filter:url(#luminosity-noclip-2);}.cls-19{filter:url(#luminosity-noclip);}</style><filter id="luminosity-noclip" x="11.6" y="-8212" width="17.86" height="32766" filterUnits="userSpaceOnUse" color-interpolation-filters="sRGB"><feFlood flood-color="#fff" result="bg"/><feBlend in="SourceGraphic" in2="bg"/></filter><mask id="mask" x="11.6" y="-8212" width="17.86" height="32766" maskUnits="userSpaceOnUse"><g class="cls-19"/></mask><radialGradient id="radial-gradient" cx="20.53" cy="2.2" r="9.11" gradientTransform="translate(0 7.58) scale(1 1.13)" gradientUnits="userSpaceOnUse"><stop offset="0" stop-color="#ccc"/><stop offset="0.15" stop-color="#c8c8c8"/><stop offset="0.29" stop-color="#bdbdbd"/><stop offset="0.43" stop-color="#aaa"/><stop offset="0.56" stop-color="#909090"/><stop offset="0.7" stop-color="#6e6e6e"/><stop offset="0.83" stop-color="#454545"/><stop offset="0.95" stop-color="#141414"/><stop offset="1"/></radialGradient><filter id="luminosity-noclip-2" x="29.46" y="-8212" width="17.86" height="32766" filterUnits="userSpaceOnUse" color-interpolation-filters="sRGB"><feFlood flood-color="#fff" result="bg"/><feBlend in="SourceGraphic" in2="bg"/></filter><mask id="mask-2" x="29.46" y="-8212" width="17.86" height="32766" maskUnits="userSpaceOnUse"><g class="cls-18"/></mask><radialGradient id="radial-gradient-2" cx="38.39" cy="2.2" r="9.11" xlink:href="#radial-gradient"/><linearGradient id="linear-gradient" x1="51.38" y1="63.18" x2="51.18" y2="8.28" gradientUnits="userSpaceOnUse"><stop offset="0" stop-color="#6688bf"/><stop offset="0.06" stop-color="#5d81bb"/><stop offset="0.3" stop-color="#416aaf"/><stop offset="0.53" stop-color="#2d5aa7"/><stop offset="0.77" stop-color="#2150a2"/><stop offset="1" stop-color="#1d4da0"/></linearGradient><linearGradient id="linear-gradient-2" x1="239.02" y1="63.18" x2="238.83" y2="8.28" gradientTransform="matrix(-1, 0, 0, 1, 245.75, 0)" xlink:href="#linear-gradient"/><linearGradient id="linear-gradient-3" x1="-538.22" y1="3.55" x2="-542.46" y2="13.03" gradientTransform="translate(397.89) scale(0.72 1)" gradientUnits="userSpaceOnUse"><stop offset="0" stop-color="#5b4792"/><stop offset="1" stop-color="#944c8f" stop-opacity="0"/></linearGradient><linearGradient id="linear-gradient-4" x1="29.06" y1="0.02" x2="34.59" y2="50.56" gradientUnits="userSpaceOnUse"><stop offset="0" stop-color="#7ec4db"/><stop offset="0.23" stop-color="#77b9d6"/><stop offset="0.62" stop-color="#639cc8"/><stop offset="1" stop-color="#4d7bb7"/></linearGradient><linearGradient id="linear-gradient-5" x1="22.37" y1="13.93" x2="47.05" y2="-34.58" gradientUnits="userSpaceOnUse"><stop offset="0" stop-color="#7ec4db"/><stop offset="0.48" stop-color="#7dc2da"/><stop offset="0.65" stop-color="#78bbd7"/><stop offset="0.77" stop-color="#70b0d1"/><stop offset="0.87" stop-color="#659fc9"/><stop offset="0.96" stop-color="#5689be"/><stop offset="1" stop-color="#4d7bb7"/></linearGradient><filter id="luminosity-noclip-3" x="11.6" y="0" width="17.86" height="20.12" filterUnits="userSpaceOnUse" color-interpolation-filters="sRGB"><feFlood flood-color="#fff" result="bg"/><feBlend in="SourceGraphic" in2="bg"/></filter><mask id="mask-3" x="11.6" y="0" width="17.86" height="20.12" maskUnits="userSpaceOnUse"><g class="cls-1"><path class="cls-2" d="M11.6,0c1.56,1.59,3.09,3.22,4.61,4.87.76.82,1.51,1.65,2.26,2.48l2.24,2.5,2.23,2.53c.73.85,1.47,1.69,2.2,2.55,1.46,1.7,2.91,3.42,4.32,5.19-1.57-1.59-3.1-3.22-4.61-4.87-.76-.82-1.51-1.65-2.26-2.48l-2.25-2.5L18.12,7.74c-.73-.85-1.47-1.69-2.2-2.55C14.46,3.48,13,1.76,11.6,0Z"/></g></mask><radialGradient id="radial-gradient-3" cx="20.53" cy="2.2" r="9.11" gradientTransform="translate(0 7.58) scale(1 1.13)" gradientUnits="userSpaceOnUse"><stop offset="0" stop-color="#21278e"/><stop offset="0.41" stop-color="#20238c"/><stop offset="0.78" stop-color="#1d1887"/><stop offset="1" stop-color="#1b0e82"/></radialGradient><filter id="luminosity-noclip-4" x="29.46" y="0" width="17.86" height="20.12" filterUnits="userSpaceOnUse" color-interpolation-filters="sRGB"><feFlood flood-color="#fff" result="bg"/><feBlend in="SourceGraphic" in2="bg"/></filter><mask id="mask-4" x="29.46" y="0" width="17.86" height="20.12" maskUnits="userSpaceOnUse"><g class="cls-3"><path class="cls-4" d="M47.32,0C45.91,1.76,44.46,3.48,43,5.19c-.73.86-1.47,1.7-2.21,2.55l-2.22,2.53-2.24,2.5c-.75.83-1.5,1.66-2.26,2.48-1.52,1.65-3.05,3.28-4.61,4.87,1.41-1.77,2.86-3.49,4.32-5.19.73-.86,1.47-1.7,2.2-2.55L38.2,9.85l2.25-2.5c.75-.83,1.5-1.66,2.26-2.48C44.22,3.22,45.75,1.59,47.32,0Z"/></g></mask><radialGradient id="radial-gradient-4" cx="38.39" cy="2.2" r="9.11" xlink:href="#radial-gradient-3"/><linearGradient id="linear-gradient-6" x1="-277.86" y1="3.55" x2="-282.09" y2="13.03" gradientTransform="matrix(-0.72, 0, 0, 1, -152.14, 0)" xlink:href="#linear-gradient-3"/></defs><g class="cls-5"><g id="Layer_2" data-name="Layer 2"><g id="Layer_1-2" data-name="Layer 1"><path class="cls-6" d="M58.1,0V32.4a13.69,13.69,0,0,1-4,9.72,13.92,13.92,0,0,1-2.93,2.23,13.55,13.55,0,0,1-5.5,1.73,1.16,1.16,0,0,1-1.29-1.15V.85A.86.86,0,0,1,45.22,0H58.1Z"/><path class="cls-7" d="M0,0V32.4a13.73,13.73,0,0,0,4,9.72A14.18,14.18,0,0,0,7,44.35a13.6,13.6,0,0,0,5.51,1.73,1.16,1.16,0,0,0,1.28-1.15V.85A.85.85,0,0,0,12.89,0H0Z"/><polygon class="cls-8" points="0.01 0 13.74 15.47 13.74 26.41 0 28.96 0.01 0"/><path class="cls-9" d="M47.32,0,29.46,20.12,11.6,0H0L13.76,15.49l12.52,14.1a3.72,3.72,0,0,0,2.07,1.22,3.66,3.66,0,0,0,3.48-1.22l3-3.4L42.1,18l16-18Z"/><path class="cls-10" d="M47.32,0,29.46,20.12,11.6,0h6.26a3.6,3.6,0,0,1,2.7,1.26L27.2,8.74a2.42,2.42,0,0,0,3.7,0l6.64-7.48A3.62,3.62,0,0,1,40.25,0Z"/><g class="cls-11"><g class="cls-12"><path class="cls-13" d="M11.6,0c1.56,1.59,3.09,3.22,4.61,4.87.76.82,1.51,1.65,2.26,2.48l2.24,2.5,2.23,2.53c.73.85,1.47,1.69,2.2,2.55,1.46,1.7,2.91,3.42,4.32,5.19-1.57-1.59-3.1-3.22-4.61-4.87-.76-.82-1.51-1.65-2.26-2.48l-2.25-2.5L18.12,7.74c-.73-.85-1.47-1.69-2.2-2.55C14.46,3.48,13,1.76,11.6,0Z"/></g></g><g class="cls-11"><g class="cls-14"><path class="cls-15" d="M47.32,0C45.91,1.76,44.46,3.48,43,5.19c-.73.86-1.47,1.7-2.21,2.55l-2.22,2.53-2.24,2.5c-.75.83-1.5,1.66-2.26,2.48-1.52,1.65-3.05,3.28-4.61,4.87,1.41-1.77,2.86-3.49,4.32-5.19.73-.86,1.47-1.7,2.2-2.55L38.2,9.85l2.25-2.5c.75-.83,1.5-1.66,2.26-2.48C44.22,3.22,45.75,1.59,47.32,0Z"/></g></g><polygon class="cls-16" points="58.1 0 44.36 15.47 44.36 26.41 58.1 28.96 58.1 0"/><path class="cls-17" d="M102,12V36.35H98.16v-16L91.35,32,84.54,20.33v16H80.71V12h3.83l6.81,12.3L98.16,12Z"/><path class="cls-17" d="M105,28.46l3.83-.7v.87c0,2.51.94,4.17,4.52,4.17,2.67,0,3.89-1.18,3.89-2.57,0-2.19-1.95-2.88-5.74-5.07-4.55-2.78-5.8-4.17-5.8-7.44,0-4.35,3.75-5.88,7.26-5.88s7.41,1.64,7.41,6.71v.7l-3.83.69c0-2.46-.69-4.38-3.82-4.38-2.12,0-3.2.8-3.2,2.09,0,1.74,2.3,2.61,6.78,5.28,3.3,2.16,4.76,3.83,4.76,7.23,0,5.11-4.31,6.36-7.82,6.36S105,35.06,105,29.82Z"/><path class="cls-17" d="M141.88,12V36.35h-3.82V26.17H128.4V36.35h-3.83V12h3.83V22.45h9.66V12Z"/></g></g></g></svg>