<svg xmlns="http://www.w3.org/2000/svg" xmlns:xlink="http://www.w3.org/1999/xlink" viewBox="0 0 1659.84 743.93"><defs><style>.cls-1,.cls-29,.cls-30,.cls-31,.cls-32,.cls-33{fill:none;}.cls-1{stroke:#fff;stroke-linecap:round;stroke-linejoin:round;stroke-width:3px;opacity:0.31;}.cls-2{font-size:35.64px;fill:#565656;}.cls-2,.cls-3,.cls-7{font-family:Gilroy-ExtraBold, Gilroy;font-weight:800;}.cls-3{font-size:21.54px;}.cls-3,.cls-7{fill:#fff;}.cls-4{letter-spacing:0.01em;}.cls-5{letter-spacing:0em;}.cls-6{letter-spacing:0em;}.cls-7{font-size:16.33px;}.cls-8{letter-spacing:-0.06em;}.cls-9{letter-spacing:-0.02em;}.cls-10{letter-spacing:0.02em;}.cls-11{letter-spacing:0em;}.cls-12{letter-spacing:-0.01em;}.cls-13{letter-spacing:-0.02em;}.cls-14{letter-spacing:-0.02em;}.cls-15{letter-spacing:-0.01em;}.cls-16{letter-spacing:-0.02em;}.cls-17{letter-spacing:-0.02em;}.cls-18{letter-spacing:-0.02em;}.cls-19{letter-spacing:-0.01em;}.cls-20{letter-spacing:-0.01em;}.cls-21{letter-spacing:0em;}.cls-22{letter-spacing:0em;}.cls-23{letter-spacing:0.01em;}.cls-24{letter-spacing:-0.01em;}.cls-25{letter-spacing:0em;}.cls-26{letter-spacing:-0.02em;}.cls-27{fill:#04ffff;}.cls-28{fill:#b33fff;}.cls-29,.cls-30,.cls-31,.cls-32,.cls-33,.cls-34,.cls-35{stroke-miterlimit:10;stroke-width:4px;}.cls-29{stroke:url(#linear-gradient);}.cls-30{stroke:url(#linear-gradient-2);}.cls-31{stroke:url(#linear-gradient-3);}.cls-32{stroke:url(#linear-gradient-4);}.cls-33,.cls-34{stroke:#04ffff;}.cls-34,.cls-35{fill:#070707;}.cls-35{stroke:#b33fff;}</style><linearGradient id="linear-gradient" x1="131.41" y1="261.85" x2="938.19" y2="261.85" gradientUnits="userSpaceOnUse"><stop offset="0" stop-color="#04ffff"/><stop offset="1" stop-color="#b33fff"/></linearGradient><linearGradient id="linear-gradient-2" x1="710.47" y1="318.87" x2="941.14" y2="318.87" xlink:href="#linear-gradient"/><linearGradient id="linear-gradient-3" x1="6225.47" y1="302.93" x2="6528.8" y2="302.93" gradientTransform="matrix(-1, 0, 0, 1, 7464.43, 0)" xlink:href="#linear-gradient"/><linearGradient id="linear-gradient-4" x1="1234.32" y1="183.6" x2="1592.9" y2="183.6" xlink:href="#linear-gradient"/></defs><g id="Layer_2" data-name="Layer 2"><g id="Definance_-_Website" data-name="Definance - Website"><g id="Website"><g id="Roadmap"><g id="Roadmap-2" data-name="Roadmap"><line class="cls-1" x1="441.44" y1="1.5" x2="441.44" y2="742.43"/><line class="cls-1" x1="940.45" y1="1.5" x2="940.45" y2="742.43"/><line class="cls-1" x1="1338.4" y1="1.5" x2="1338.4" y2="742.43"/><text class="cls-2" transform="translate(170.22 730.67)">June</text><text class="cls-3" transform="translate(0 497.33)">The <tspan class="cls-4" x="42.06" y="0">B</tspan><tspan class="cls-5" x="55.2" y="0">e</tspan><tspan class="cls-6" x="67.59" y="0">genning</tspan></text><text class="cls-7" transform="translate(61.28 517.53)"><tspan class="cls-8">W</tspan><tspan x="15.31" y="0">e all </tspan><tspan class="cls-9" x="51.61" y="0">st</tspan><tspan x="64.93" y="0">a</tspan><tspan class="cls-10" x="75.1" y="0">r</tspan><tspan class="cls-11" x="81.39" y="0">t</tspan><tspan x="-19.87" y="14">at </tspan><tspan class="cls-12" x="0.72" y="14">s</tspan><tspan x="8.2" y="14">om</tspan><tspan class="cls-13" x="31.75" y="14">e</tspan><tspan x="40.9" y="14">whe</tspan><tspan class="cls-14" x="72.46" y="14">r</tspan><tspan x="78.25" y="14">e</tspan></text><text class="cls-3" transform="translate(194.1 258.84)"><tspan class="cls-15">S</tspan><tspan x="12.28" y="0">t</tspan><tspan class="cls-16" x="20.63" y="0">r</tspan><tspan x="28.28" y="0">a</tspan><tspan class="cls-17" x="41.7" y="0">t</tspan><tspan class="cls-5" x="49.63" y="0">e</tspan><tspan x="62.01" y="0">gy</tspan></text><text class="cls-7" transform="translate(194.48 282.89)">The m<tspan class="cls-12" x="45.81" y="0">o</tspan><tspan class="cls-13" x="55.28" y="0">s</tspan><tspan x="62.6" y="0">t Impo</tspan><tspan class="cls-10" x="111.32" y="0">r</tspan><tspan class="cls-18" x="117.6" y="0">t</tspan><tspan x="123.61" y="0">ant</tspan><tspan class="cls-14" x="0" y="14">S</tspan><tspan class="cls-18" x="9.31" y="14">t</tspan><tspan x="15.31" y="14">ep</tspan></text><text class="cls-3" transform="translate(617.92 145.3)"><tspan class="cls-15">S</tspan><tspan x="12.28" y="0">t</tspan><tspan class="cls-16" x="20.63" y="0">r</tspan><tspan x="28.28" y="0">a</tspan><tspan class="cls-17" x="41.7" y="0">t</tspan><tspan class="cls-5" x="49.63" y="0">e</tspan><tspan x="62.01" y="0">gy</tspan></text><text class="cls-7" transform="translate(618.3 169.35)">The m<tspan class="cls-12" x="45.81" y="0">o</tspan><tspan class="cls-13" x="55.28" y="0">s</tspan><tspan x="62.6" y="0">t Impo</tspan><tspan class="cls-10" x="111.32" y="0">r</tspan><tspan class="cls-18" x="117.6" y="0">t</tspan><tspan x="123.61" y="0">ant</tspan><tspan class="cls-14" x="0" y="14">S</tspan><tspan class="cls-18" x="9.31" y="14">t</tspan><tspan x="15.31" y="14">ep</tspan></text><text class="cls-3" transform="translate(512 285.64)"><tspan class="cls-15">S</tspan><tspan x="12.28" y="0">t</tspan><tspan class="cls-16" x="20.63" y="0">r</tspan><tspan x="28.28" y="0">a</tspan><tspan class="cls-17" x="41.7" y="0">t</tspan><tspan class="cls-5" x="49.63" y="0">e</tspan><tspan x="62.01" y="0">gy</tspan></text><text class="cls-7" transform="translate(512.38 309.69)">The m<tspan class="cls-12" x="45.81" y="0">o</tspan><tspan class="cls-13" x="55.28" y="0">s</tspan><tspan x="62.6" y="0">t Impo</tspan><tspan class="cls-10" x="111.32" y="0">r</tspan><tspan class="cls-18" x="117.6" y="0">t</tspan><tspan x="123.61" y="0">ant</tspan><tspan class="cls-14" x="0" y="14">S</tspan><tspan class="cls-18" x="9.31" y="14">t</tspan><tspan x="15.31" y="14">ep</tspan></text><text class="cls-3" transform="translate(543.04 403.88)"><tspan class="cls-15">S</tspan><tspan x="12.28" y="0">t</tspan><tspan class="cls-16" x="20.63" y="0">r</tspan><tspan x="28.28" y="0">a</tspan><tspan class="cls-17" x="41.7" y="0">t</tspan><tspan class="cls-5" x="49.63" y="0">e</tspan><tspan x="62.01" y="0">gy</tspan></text><text class="cls-7" transform="translate(543.42 427.93)">The m<tspan class="cls-12" x="45.81" y="0">o</tspan><tspan class="cls-13" x="55.28" y="0">s</tspan><tspan x="62.6" y="0">t Impo</tspan><tspan class="cls-10" x="111.32" y="0">r</tspan><tspan class="cls-18" x="117.6" y="0">t</tspan><tspan x="123.61" y="0">ant</tspan><tspan class="cls-14" x="0" y="14">S</tspan><tspan class="cls-18" x="9.31" y="14">t</tspan><tspan x="15.31" y="14">ep</tspan></text><text class="cls-3" transform="translate(719.75 502.73)"><tspan class="cls-15">S</tspan><tspan x="12.28" y="0">t</tspan><tspan class="cls-16" x="20.63" y="0">r</tspan><tspan x="28.28" y="0">a</tspan><tspan class="cls-17" x="41.7" y="0">t</tspan><tspan class="cls-5" x="49.63" y="0">e</tspan><tspan x="62.01" y="0">gy</tspan></text><text class="cls-7" transform="translate(720.12 526.78)">The m<tspan class="cls-12" x="45.81" y="0">o</tspan><tspan class="cls-13" x="55.28" y="0">s</tspan><tspan x="62.6" y="0">t Impo</tspan><tspan class="cls-10" x="111.32" y="0">r</tspan><tspan class="cls-18" x="117.6" y="0">t</tspan><tspan x="123.61" y="0">ant</tspan><tspan class="cls-14" x="0" y="14">S</tspan><tspan class="cls-18" x="9.31" y="14">t</tspan><tspan x="15.31" y="14">ep</tspan></text><text class="cls-3" transform="translate(999.4 502.73)"><tspan class="cls-15">S</tspan><tspan x="12.28" y="0">t</tspan><tspan class="cls-16" x="20.63" y="0">r</tspan><tspan x="28.28" y="0">a</tspan><tspan class="cls-17" x="41.7" y="0">t</tspan><tspan class="cls-5" x="49.63" y="0">e</tspan><tspan x="62.01" y="0">gy</tspan></text><text class="cls-7" transform="translate(999.77 526.78)">The m<tspan class="cls-12" x="45.81" y="0">o</tspan><tspan class="cls-13" x="55.28" y="0">s</tspan><tspan x="62.6" y="0">t Impo</tspan><tspan class="cls-10" x="111.32" y="0">r</tspan><tspan class="cls-18" x="117.6" y="0">t</tspan><tspan x="123.61" y="0">ant</tspan><tspan class="cls-14" x="0" y="14">S</tspan><tspan class="cls-18" x="9.31" y="14">t</tspan><tspan x="15.31" y="14">ep</tspan></text><text class="cls-3" transform="translate(1170.97 87.69)"><tspan class="cls-15">S</tspan><tspan x="12.28" y="0">t</tspan><tspan class="cls-16" x="20.63" y="0">r</tspan><tspan x="28.28" y="0">a</tspan><tspan class="cls-17" x="41.7" y="0">t</tspan><tspan class="cls-5" x="49.63" y="0">e</tspan><tspan x="62.01" y="0">gy</tspan></text><text class="cls-7" transform="translate(1171.35 111.74)">The m<tspan class="cls-12" x="45.81" y="0">o</tspan><tspan class="cls-13" x="55.28" y="0">s</tspan><tspan x="62.6" y="0">t Impo</tspan><tspan class="cls-10" x="111.32" y="0">r</tspan><tspan class="cls-18" x="117.6" y="0">t</tspan><tspan x="123.61" y="0">ant</tspan><tspan class="cls-14" x="0" y="14">S</tspan><tspan class="cls-18" x="9.31" y="14">t</tspan><tspan x="15.31" y="14">ep</tspan></text><text class="cls-3" transform="translate(1507.83 141.23)">Futu<tspan class="cls-16" x="44.67" y="0">r</tspan><tspan x="52.32" y="0">e</tspan></text><text class="cls-7" transform="translate(1508.96 165.28)">The a<tspan class="cls-10" x="42.06" y="0">f</tspan><tspan class="cls-18" x="47.69" y="0">t</tspan><tspan x="53.7" y="0">er ma</tspan><tspan class="cls-19" x="97.39" y="0">t</tspan><tspan x="103.56" y="0">h </tspan><tspan class="cls-20" x="117.16" y="0">i</tspan><tspan class="cls-21" x="121.33" y="0">s</tspan><tspan class="cls-22" x="0" y="14">Le</tspan><tspan x="17.14" y="14">genda</tspan><tspan class="cls-23" x="66.65" y="14">r</tspan><tspan x="72.85" y="14">y</tspan></text><text class="cls-2" transform="translate(650.74 731.17)">Ma<tspan class="cls-24" x="51.43" y="0">r</tspan><tspan class="cls-25" x="64.08" y="0">c</tspan><tspan x="82.83" y="0">h</tspan></text><text class="cls-2" transform="translate(1084.85 730.67)"><tspan class="cls-25">A</tspan><tspan x="24.06" y="0">ug</tspan><tspan class="cls-25" x="67.04" y="0">u</tspan><tspan class="cls-26" x="87.64" y="0">s</tspan><tspan x="103.6" y="0">t</tspan></text><text class="cls-2" transform="translate(1479.54 730.67)">July</text><circle class="cls-27" cx="63.34" cy="446" r="3.53"/><circle class="cls-27" cx="72.6" cy="446" r="3.53"/><circle class="cls-27" cx="81.86" cy="446" r="3.53"/><circle class="cls-27" cx="91.12" cy="446" r="3.53"/><circle class="cls-27" cx="100.38" cy="446" r="3.53"/><circle class="cls-28" cx="1619.27" cy="80.23" r="3.53"/><circle class="cls-28" cx="1628.53" cy="80.23" r="3.53"/><circle class="cls-28" cx="1637.79" cy="80.23" r="3.53"/><circle class="cls-28" cx="1647.05" cy="80.23" r="3.53"/><circle class="cls-28" cx="1656.31" cy="80.23" r="3.53"/><path class="cls-29" d="M131.57,445.63a226.88,226.88,0,0,0,65.18-14.89c31.45-12.33,51.26-28.39,75.85-48.66,40.9-33.72,67.44-67.4,87.41-92.74,12.74-16.17,24.14-32,30.07-40.3,30.48-42.43,28.4-44.59,44.89-64.89,29.28-36,56.89-55.14,63-59.28a266.47,266.47,0,0,1,45-24.57,263.15,263.15,0,0,1,46.51-14.83c65.76-14.91,126.41-2.73,128.9-2.21C777,95.6,815.54,122.84,824.16,129.12c24.58,17.9,42.36,37.7,52.07,48.51,10.75,12,21.75,24.22,32.63,42.24a224.08,224.08,0,0,1,27.37,70.21"/><circle class="cls-30" cx="825.8" cy="318.87" r="113.33"/><circle class="cls-31" cx="1087.3" cy="302.93" r="149.67"/><path class="cls-32" d="M1236.27,288.44c10-43.08,27.43-72.55,39.3-89.47C1343.21,102.45,1461.68,83,1494.1,81.84c3.3-.13,62.35-1.32,62.35-1.32s28-.22,36.45-.22"/><circle class="cls-33" cx="120.75" cy="446.82" r="9.93"/><circle class="cls-34" cx="346.8" cy="305.94" r="9.93"/><circle class="cls-34" cx="759.61" cy="225.63" r="9.93"/><circle class="cls-34" cx="712.47" cy="307.59" r="9.93"/><circle class="cls-34" cx="745.57" cy="399.95" r="9.93"/><circle class="cls-34" cx="837.7" cy="432.2" r="9.93"/><circle class="cls-34" cx="1032.89" cy="442.13" r="9.93"/><circle class="cls-34" cx="1236.97" cy="298.37" r="9.93"/><circle class="cls-35" cx="1602.82" cy="80.23" r="9.93"/><path class="cls-27" d="M1298.22,189.05a3,3,0,0,1-5.18-2.28l.42-9.54-9.54.42a3,3,0,1,1-.26-6.07l12.84-.56a3,3,0,0,1,3.17,3.17l-.56,12.85A3,3,0,0,1,1298.22,189.05Z"/><path class="cls-27" d="M1161.6,446.51a3,3,0,0,1-4.41-3.54l2.87-9.1-9.32-2.07a3,3,0,0,1,1.32-5.93l12.56,2.78a3,3,0,0,1,2.23,3.88L1163,444.8A3,3,0,0,1,1161.6,446.51Z"/><path class="cls-28" d="M986.63,174.91a3,3,0,0,1,4.91,2.81l-1.41,9.44,9.52.58a3,3,0,1,1-.37,6.07L986.44,193a3,3,0,0,1-2.81-3.48l1.91-12.72A3,3,0,0,1,986.63,174.91Z"/><path class="cls-28" d="M893.87,392.69a3,3,0,0,1,4.91,2.81l-1.41,9.44,9.52.59a3,3,0,1,1-.37,6.06l-12.84-.79a3,3,0,0,1-2.81-3.48l1.91-12.72A3,3,0,0,1,893.87,392.69Z"/><path class="cls-28" d="M718.17,94.89a3,3,0,0,1-.46-5.64l8.59-4.17-4.9-8.19a3,3,0,1,1,5.21-3.12l6.61,11a3,3,0,0,1,.3,2.42,3,3,0,0,1-1.58,1.87l-11.57,5.61A3,3,0,0,1,718.17,94.89Z"/><path class="cls-27" d="M221.69,431.1a3,3,0,0,1-3.56-4.41l4.76-8.27-8.66-4a3,3,0,0,1,2.56-5.51l11.67,5.41a3,3,0,0,1,1.35,4.27l-6.41,11.15A3,3,0,0,1,221.69,431.1Z"/><path class="cls-28" d="M1474.16,95.27a3,3,0,0,1-2.24-1,3,3,0,0,1,.18-4.29l7-6.46-7-6.43a3,3,0,0,1,4.1-4.49l9.5,8.67a3,3,0,0,1,1,2.24,3.07,3.07,0,0,1-1,2.24l-9.47,8.7A3,3,0,0,1,1474.16,95.27Z"/></g></g></g></g></g></svg>