<svg xmlns="http://www.w3.org/2000/svg" xmlns:xlink="http://www.w3.org/1999/xlink" viewBox="0 0 210.38 210.38"><defs><style>.cls-1{fill:#ff2727;}.cls-2{fill:#12ffa4;}.cls-10,.cls-11,.cls-3,.cls-4,.cls-5,.cls-6,.cls-7,.cls-8,.cls-9{fill:none;stroke-miterlimit:10;stroke-width:2px;}.cls-3,.cls-8,.cls-9{stroke:#fff;}.cls-4{stroke:url(#linear-gradient);}.cls-5{stroke:url(#linear-gradient-2);}.cls-6{stroke:url(#linear-gradient-3);}.cls-7{stroke:url(#linear-gradient-4);}.cls-8{stroke-dasharray:3.02 3.02;}.cls-9{stroke-dasharray:2.98 2.98;}.cls-10{stroke:#ff296b;}.cls-11{stroke:#f97d16;}</style><linearGradient id="linear-gradient" x1="96.52" y1="25.43" x2="113.86" y2="25.43" gradientUnits="userSpaceOnUse"><stop offset="0" stop-color="#6ad9e6"/><stop offset="1" stop-color="#5ac3dd"/></linearGradient><linearGradient id="linear-gradient-2" x1="177.72" y1="105.19" x2="195.06" y2="105.19" xlink:href="#linear-gradient"/><linearGradient id="linear-gradient-3" x1="16.78" y1="105.19" x2="34.12" y2="105.19" xlink:href="#linear-gradient"/><linearGradient id="linear-gradient-4" x1="96.52" y1="184.54" x2="113.86" y2="184.54" xlink:href="#linear-gradient"/></defs><g id="Layer_2" data-name="Layer 2"><g id="Definance_-_Website" data-name="Definance - Website"><g id="Website"><g id="Features"><g id="Card"><g id="Auto_LP" data-name="Auto LP"><path class="cls-1" d="M135.94,72.39l-1,10.15-24.5-31,39.31,4.09-9.15,7.19a48.37,48.37,0,0,1,15.48,19.86,49.06,49.06,0,0,1-20.35,61.46c-3,1.74-6.48.66-7.6-2s.58-5.81,3.49-7.65a38.68,38.68,0,0,0,14.92-47.78A38.13,38.13,0,0,0,135.94,72.39Z"/><path class="cls-2" d="M100.81,156.46,61.3,152.35l9.2-7.23a48.73,48.73,0,0,1-15.57-20A49.33,49.33,0,0,1,75.38,63.38c3-1.75,6.52-.67,7.65,2s-.58,5.85-3.51,7.7a38.9,38.9,0,0,0-15,48,38.5,38.5,0,0,0,10.63,14.41l1-10.2Z"/><circle class="cls-3" cx="105.19" cy="105.19" r="21.97"/><circle class="cls-4" cx="105.19" cy="25.43" r="7.67"/><circle class="cls-5" cx="186.39" cy="105.19" r="7.67"/><circle class="cls-6" cx="25.45" cy="105.19" r="7.67"/><circle class="cls-7" cx="105.19" cy="184.54" r="7.67"/><path class="cls-3" d="M16.17,51c.26-.43.52-.86.79-1.28"/><path class="cls-8" d="M18.6,47.22a104.2,104.2,0,0,1,190.77,56.61"/><path class="cls-3" d="M209.38,105.34c0,.5,0,1,0,1.5"/><path class="cls-3" d="M195.22,157.66c-.25.43-.51.86-.77,1.29"/><path class="cls-9" d="M192.88,161.48A104.2,104.2,0,0,1,1,106.73"/><path class="cls-3" d="M1,105.24v0c0-.49,0-1,0-1.45"/><path class="cls-3" d="M91.68,185.27a81.28,81.28,0,0,1-66.49-66.1"/><path class="cls-3" d="M185.19,119.17a81.27,81.27,0,0,1-66.73,66.14"/><path class="cls-3" d="M118.45,25.07a81.26,81.26,0,0,1,66.94,67.36"/><path class="cls-3" d="M25,92.43A81.26,81.26,0,0,1,91.68,25.11"/><line class="cls-10" x1="203.58" y1="133.53" x2="203.58" y2="144.59"/><line class="cls-10" x1="209.1" y1="139.06" x2="198.05" y2="139.06"/><line class="cls-3" x1="131.15" y1="156.99" x2="131.15" y2="174.39"/><line class="cls-3" x1="139.85" y1="165.69" x2="122.45" y2="165.69"/><line class="cls-11" x1="7.63" y1="71.76" x2="7.63" y2="82.81"/><line class="cls-11" x1="13.16" y1="77.29" x2="2.1" y2="77.29"/><line class="cls-3" x1="91.68" y1="25.11" x2="91.68" y2="24.62"/></g></g></g></g></g></g></svg>