<svg xmlns="http://www.w3.org/2000/svg" viewBox="0 0 298.68 188.8"><defs><style>.cls-1{fill:none;stroke:#fff;stroke-miterlimit:10;stroke-width:2px;}.cls-2{fill:#00b1ff;}.cls-3{fill:#f47f00;}</style></defs><g id="Layer_2" data-name="Layer 2"><g id="Definance_-_Website" data-name="Definance - Website"><g id="Website"><g id="Features"><g id="Card"><g id="Community"><path class="cls-1" d="M1,188.68c.19-7.82,1.81-34.47,20.34-56.32C47.11,102,84.49,101.79,89.9,101.85c33.51-.83,63.84,14.59,78.3,40.72,10.31,18.62,9.54,37.24,8.53,46.11"/><path class="cls-2" d="M89.9,101.85C68,102.17,50.36,75.64,49.8,52.36,49.22,27.69,67.61-.45,90.07,0c21.44.43,37.83,26.76,38.4,49.4C129.06,73.26,112.31,101.53,89.9,101.85Z"/><path class="cls-1" d="M297.68,188.68c-.19-7.82-1.8-34.47-20.34-56.32-25.77-30.36-63.15-30.57-68.55-30.51-33.51-.83-63.84,14.59-78.31,40.72-10.3,18.62-9.54,37.24-8.52,46.11"/><path class="cls-3" d="M208.79,101.85c21.92.32,39.53-26.21,40.09-49.49C249.47,27.69,231.07-.45,208.61,0c-21.44.43-37.82,26.76-38.39,49.4C169.62,73.26,186.37,101.53,208.79,101.85Z"/></g></g></g></g></g></g></svg>