<svg xmlns="http://www.w3.org/2000/svg" xmlns:xlink="http://www.w3.org/1999/xlink" viewBox="0 0 896.38 819.92"><defs><style>.cls-1{opacity:0.35;fill:url(#radial-gradient);}.cls-2{opacity:0.39;}.cls-10,.cls-11,.cls-12,.cls-3,.cls-4,.cls-5,.cls-6,.cls-7,.cls-8,.cls-9{fill:none;stroke-miterlimit:10;}.cls-3{stroke:#727272;stroke-dasharray:3.01 3.01;}.cls-4{stroke:#8a2dd3;}.cls-10,.cls-11,.cls-12,.cls-4,.cls-5,.cls-6,.cls-7,.cls-8,.cls-9{stroke-width:8px;}.cls-5{stroke:#2765ff;}.cls-6{stroke:#7097f9;}.cls-7{stroke:#b2e4ff;}.cls-8{stroke:#6ee4bf;}.cls-9{stroke:#7d74ff;}.cls-10{stroke:#dd1efe;}.cls-11{stroke:#d84f96;}.cls-12{stroke:#d36fec;}.cls-13{font-size:20.33px;letter-spacing:-0.11em;}.cls-13,.cls-17{fill:#fff;}.cls-13,.cls-17,.cls-23,.cls-25{font-family:Gilroy-ExtraBold, Gilroy;font-weight:800;}.cls-14{letter-spacing:-0.02em;}.cls-15{letter-spacing:-0.03em;}.cls-16{letter-spacing:-0.01em;}.cls-17,.cls-25{font-size:16.77px;}.cls-18{letter-spacing:-0.01em;}.cls-19{letter-spacing:-0.02em;}.cls-20{letter-spacing:-0.03em;}.cls-21{letter-spacing:-0.09em;}.cls-22{letter-spacing:0em;}.cls-23{font-size:17.71px;fill:#fde7ff;letter-spacing:-0.03em;}.cls-24{letter-spacing:-0.02em;}.cls-25{fill:#969696;}.cls-26{letter-spacing:-0.01em;}.cls-27{letter-spacing:0em;}.cls-28{letter-spacing:-0.01em;}.cls-29{letter-spacing:-0.02em;}.cls-30{letter-spacing:-0.03em;}.cls-31{letter-spacing:0.01em;}.cls-32{letter-spacing:-0.04em;}.cls-33{letter-spacing:0em;}.cls-34{letter-spacing:-0.03em;}.cls-35{letter-spacing:-0.01em;}</style><radialGradient id="radial-gradient" cx="456.73" cy="425.15" r="180.86" gradientUnits="userSpaceOnUse"><stop offset="0" stop-color="#2e3192"/><stop offset="1" stop-color="#111"/></radialGradient></defs><g id="Layer_2" data-name="Layer 2"><g id="Definance_-_Website" data-name="Definance - Website"><g id="Website"><g id="Tokenomics"><g id="Diagram"><g id="Chart"><circle class="cls-1" cx="456.73" cy="425.15" r="180.86"/><g class="cls-2"><circle class="cls-3" cx="456.86" cy="425.89" r="238.24" transform="translate(-167.34 447.79) rotate(-45)"/></g><path class="cls-4" d="M473.77,67.4a356.5,356.5,0,0,1,204.67,75.83"/><path class="cls-5" d="M362.1,79.91A358.31,358.31,0,0,1,457.57,67c3.65,0,7.3.06,10.92.16"/><path class="cls-6" d="M178.59,200.59A358.5,358.5,0,0,1,358.69,80.86"/><path class="cls-7" d="M122.85,297.52A357.86,357.86,0,0,1,176.63,203"/><path class="cls-8" d="M103.65,370a355.48,355.48,0,0,1,18-69.17"/><path class="cls-9" d="M203.16,677.25A357,357,0,0,1,99.43,425.18a362.22,362.22,0,0,1,3.74-52"/><path class="cls-10" d="M615.28,746.82a358.45,358.45,0,0,1-409-66.47"/><path class="cls-11" d="M792.61,552A359.34,359.34,0,0,1,619.07,744.93"/><path class="cls-12" d="M681.32,145.52C763.25,211.15,815.71,312,815.71,425.18A357.3,357.3,0,0,1,794,548.26"/><text class="cls-13" transform="translate(402.18 408.4)">T<tspan class="cls-14" x="8.84" y="0">o</tspan><tspan class="cls-15" x="20.33" y="0">t</tspan><tspan class="cls-16" x="27.5" y="0">al Supply</tspan></text><text class="cls-17" transform="translate(385.1 447.35)"><tspan class="cls-18">8</tspan><tspan class="cls-19" x="9.54" y="0">5</tspan><tspan class="cls-20" x="18.43" y="0">,</tspan><tspan x="22.79" y="0">00</tspan><tspan class="cls-20" x="43.92" y="0">0,</tspan><tspan x="58.34" y="0">000 </tspan><tspan class="cls-21" x="94.23" y="0">T</tspan><tspan class="cls-22" x="101.77" y="0">o</tspan><tspan class="cls-20" x="111.67" y="0">k</tspan><tspan x="120.13" y="0">ens</tspan></text><text class="cls-23" transform="translate(86.67 231.3)">5<tspan class="cls-24" x="9.12" y="0">%</tspan></text><text class="cls-25" transform="translate(12.55 250.57)"><tspan class="cls-26">P</tspan><tspan x="9.73" y="0">ri</tspan><tspan class="cls-19" x="20.29" y="0">v</tspan><tspan x="29.01" y="0">a</tspan><tspan class="cls-19" x="39.46" y="0">t</tspan><tspan class="cls-27" x="45.63" y="0">e </tspan><tspan class="cls-28" x="59.55" y="0">r</tspan><tspan x="65.5" y="0">ound</tspan></text><text class="cls-23" transform="translate(56.05 320.51)">5<tspan class="cls-24" x="9.12" y="0">%</tspan></text><text class="cls-25" transform="translate(0 339.79)">Mar<tspan class="cls-20" x="30.4" y="0">k</tspan><tspan class="cls-29" x="38.87" y="0">e</tspan><tspan class="cls-26" x="48.34" y="0">t</tspan><tspan x="54.68" y="0">ing</tspan></text><text class="cls-23" transform="translate(283.45 796.12)">5<tspan class="cls-24" x="9.12" y="0">%</tspan></text><text class="cls-25" transform="translate(283.39 815.39)"><tspan class="cls-29">S</tspan><tspan class="cls-19" x="9.56" y="0">t</tspan><tspan x="15.73" y="0">aking</tspan></text><text class="cls-23" transform="translate(61.7 550.36)">5<tspan class="cls-24" x="9.12" y="0">%</tspan></text><text class="cls-25" transform="translate(7.5 569.63)"><tspan class="cls-18">C</tspan><tspan class="cls-22" x="11.97" y="0">ompa</tspan><tspan class="cls-26" x="57.06" y="0">n</tspan><tspan x="66.67" y="0">y</tspan><tspan class="cls-30" x="3.35" y="20.53">R</tspan><tspan class="cls-19" x="13.25" y="20.53">e</tspan><tspan class="cls-26" x="22.64" y="20.53">s</tspan><tspan class="cls-27" x="30.32" y="20.53">er</tspan><tspan class="cls-19" x="46.25" y="20.53">ve</tspan><tspan x="64.36" y="20.53">s</tspan></text><text class="cls-23" transform="translate(280.83 48.71)">5<tspan class="cls-24" x="9.12" y="0">%</tspan></text><text class="cls-25" transform="translate(228.2 67.99)">He<tspan class="cls-28" x="20.79" y="0">r</tspan><tspan x="26.75" y="0">o </tspan><tspan class="cls-31" x="40.83" y="0">S</tspan><tspan x="50.89" y="0">ale</tspan></text><text class="cls-23" transform="translate(445.23 15.05)">5<tspan class="cls-24" x="9.12" y="0">%</tspan></text><text class="cls-25" transform="translate(428.4 35.44)"><tspan class="cls-32">T</tspan><tspan x="8.38" y="0">GLP</tspan></text><text class="cls-23" transform="translate(563.61 28.32)">5<tspan class="cls-24" x="9.12" y="0">%</tspan></text><text class="cls-25" transform="translate(544.77 48.71)"><tspan class="cls-21">T</tspan><tspan class="cls-33" x="7.55" y="0">e</tspan><tspan x="17.19" y="0">am</tspan></text><text class="cls-23" transform="translate(820.85 275.1)">5<tspan class="cls-24" x="9.12" y="0">%</tspan></text><text class="cls-25" transform="translate(820.2 295.49)">E<tspan class="cls-34" x="8.89" y="0">x</tspan><tspan class="cls-33" x="17.19" y="0">c</tspan><tspan x="26.01" y="0">hange</tspan><tspan x="12.71" y="13.69">L</tspan><tspan class="cls-18" x="20.76" y="13.69">i</tspan><tspan class="cls-19" x="25.04" y="13.69">s</tspan><tspan class="cls-26" x="32.55" y="13.69">t</tspan><tspan x="38.89" y="13.69">ing</tspan></text><text class="cls-23" transform="translate(739.26 701.82)">5<tspan class="cls-24" x="9.12" y="0">%</tspan></text><text class="cls-25" transform="translate(739.19 720.76)"><tspan class="cls-29">S</tspan><tspan x="9.56" y="0">t</tspan><tspan class="cls-28" x="16.06" y="0">r</tspan><tspan x="22.02" y="0">a</tspan><tspan class="cls-19" x="32.46" y="0">t</tspan><tspan class="cls-18" x="38.64" y="0">e</tspan><tspan x="48.28" y="0">gic </tspan><tspan class="cls-20" x="76.18" y="0">P</tspan><tspan class="cls-22" x="85.57" y="0">a</tspan><tspan class="cls-31" x="96.02" y="0">r</tspan><tspan x="102.48" y="0">tne</tspan><tspan class="cls-28" x="128.48" y="0">r</tspan><tspan class="cls-22" x="134.44" y="0">s</tspan><tspan x="34.09" y="20.53">&amp; </tspan><tspan class="cls-35" x="49.65" y="20.53">A</tspan><tspan x="60.8" y="20.53">dvi</tspan><tspan class="cls-28" x="84.67" y="20.53">r</tspan><tspan class="cls-26" x="90.62" y="20.53">o</tspan><tspan x="100.35" y="20.53">s</tspan></text></g></g></g></g></g></g></svg>